<svg width="57" height="57" viewBox="0 0 57 57" fill="none" xmlns="http://www.w3.org/2000/svg">
<path d="M49.875 0H7.125C3.19556 0 0 3.19556 0 7.125V49.875C0 53.8044 3.19556 57 7.125 57H49.875C53.8044 57 57 53.8044 57 49.875V7.125C57 3.19556 53.8044 0 49.875 0Z" fill="#1976D2"/>
<path d="M48.0938 28.5H39.1875V21.375C39.1875 19.4085 40.7835 19.5938 42.75 19.5938H46.3125V10.6875H39.1875C33.2844 10.6875 28.5 15.4719 28.5 21.375V28.5H21.375V37.4062H28.5V57H39.1875V37.4062H44.5312L48.0938 28.5Z" fill="#FAFAFA"/>
</svg>
