<svg width="37" height="37" viewBox="0 0 37 37" fill="none" xmlns="http://www.w3.org/2000/svg">
<g clip-path="url(#clip0)">
<path d="M0.340657 6.60295C0.182477 6.34362 0.0769394 6.05567 0.0300717 5.75555C-0.0167961 5.45542 -0.00407533 5.149 0.0675073 4.8538C0.13909 4.55859 0.268132 4.28038 0.447261 4.03506C0.626391 3.78973 0.852098 3.5821 1.11149 3.42403L6.14966 0.340697C6.40874 0.168176 6.69999 0.0497349 7.00594 -0.00752823C7.3119 -0.0647913 7.62626 -0.0596978 7.9302 0.00744696C8.23414 0.0745918 8.5214 0.202406 8.77476 0.38323C9.02812 0.564053 9.24236 0.794165 9.40466 1.05977C9.56695 1.32538 9.67395 1.62102 9.71925 1.92898C9.76455 2.23693 9.74721 2.55086 9.66827 2.85196C9.58933 3.15305 9.45042 3.4351 9.25986 3.68122C9.0693 3.92734 8.83101 4.13246 8.55928 4.28428L3.51957 7.36761C3.26025 7.52579 2.9723 7.63133 2.67217 7.6782C2.37205 7.72507 2.06563 7.71234 1.77042 7.64076C1.47522 7.56918 1.19701 7.44014 0.951682 7.26101C0.706358 7.08188 0.49873 6.85617 0.340657 6.59678V6.60295ZM35.9023 27.7238C35.3803 27.4018 34.7519 27.3004 34.1552 27.4418C33.5584 27.5832 33.0423 27.9558 32.7203 28.4777L29.637 33.4742C29.4702 33.7326 29.3567 34.0217 29.3031 34.3245C29.2494 34.6273 29.2567 34.9378 29.3245 35.2377C29.3923 35.5377 29.5192 35.8211 29.6979 36.0714C29.8766 36.3218 30.1034 36.5339 30.365 36.6955C30.6267 36.8571 30.9179 36.9649 31.2218 37.0125C31.5256 37.0602 31.8358 37.0467 32.1344 36.973C32.433 36.8993 32.7138 36.7668 32.9605 36.5832C33.2073 36.3996 33.4149 36.1687 33.5713 35.9039L36.6546 30.9073C36.8146 30.6489 36.922 30.3614 36.9708 30.0614C37.0195 29.7613 37.0087 29.4546 36.9388 29.1588C36.8689 28.863 36.7414 28.5838 36.5635 28.3373C36.3857 28.0908 36.161 27.8818 35.9023 27.7222V27.7238ZM32.1206 23.8696L26.5706 32.9115C25.8956 34.0171 24.9775 34.9543 23.886 35.6518C22.7944 36.3493 21.5582 36.7888 20.2713 36.9368C19.932 36.976 19.5908 36.996 19.2492 36.9969C17.3543 36.9894 15.5165 36.3473 14.0291 35.1731C12.8193 36.3461 11.1983 36.9989 9.51323 36.9919C7.82812 36.9848 6.2127 36.3185 5.01271 35.1354C3.81271 33.9523 3.12347 32.3466 3.09249 30.6617C3.06151 28.9769 3.69126 27.3468 4.84695 26.1204L2.5437 23.8079C1.62188 22.8937 0.920605 21.7814 0.493183 20.5555C0.06576 19.3296 -0.076563 18.0224 0.0770316 16.7332C0.223179 15.4569 0.658323 14.2307 1.3494 13.1477C2.04048 12.0647 2.96931 11.1535 4.06532 10.4833L12.5244 5.2617C14.8578 3.76866 17.5854 3.00978 20.3545 3.08316C23.1237 3.15654 25.8073 4.0588 28.0583 5.67332L29.97 3.76011C30.4038 3.3263 30.9921 3.08258 31.6057 3.08258C32.2192 3.08258 32.8076 3.3263 33.2414 3.76011C33.6752 4.19393 33.9189 4.78231 33.9189 5.39582C33.9189 6.00933 33.6752 6.59771 33.2414 7.03153L31.3312 8.94166C32.8655 11.0995 33.7544 13.6493 33.8942 16.2933C34.034 18.9374 33.4188 21.5666 32.1206 23.8742V23.8696ZM26.5706 10.4463C25.0747 8.94134 23.1082 7.9945 20.9989 7.76362C18.8895 7.53274 16.7648 8.03177 14.9788 9.17753L6.49962 14.4192C5.99942 14.726 5.57566 15.1427 5.26047 15.6377C4.94527 16.1326 4.74692 16.6929 4.68045 17.2759C4.61001 17.8718 4.67643 18.4759 4.87466 19.0423C5.07289 19.6086 5.39769 20.1223 5.82437 20.5442L16.4804 31.2249C16.9027 31.6454 17.4147 31.9649 17.978 32.1594C18.5413 32.354 19.1413 32.4187 19.7331 32.3485C20.325 32.2784 20.8932 32.0753 21.3955 31.7544C21.8977 31.4335 22.3208 31.0032 22.6332 30.4957L28.1415 21.5263C29.1187 19.7603 29.4941 17.7242 29.211 15.7259C28.9278 13.7276 28.0015 11.8759 26.5721 10.4509L26.5706 10.4463Z" fill="#2130B8"/>
</g>
<defs>
<clipPath id="clip0">
<rect width="37" height="37" fill="white"/>
</clipPath>
</defs>
</svg>
