<svg width="37" height="37" viewBox="0 0 37 37" fill="none" xmlns="http://www.w3.org/2000/svg">
<g clip-path="url(#clip0)">
<path d="M34.9958 14.3745L33.1458 13.673C32.9087 12.9473 32.6154 12.2412 32.2686 11.561L33.095 9.74025C33.3501 9.16975 33.4268 8.53547 33.3151 7.9206C33.2034 7.30572 32.9085 6.73896 32.469 6.29463L30.6869 4.51862C30.2413 4.08449 29.6752 3.79476 29.0625 3.68723C28.4497 3.57969 27.8188 3.65936 27.252 3.91583L25.4375 4.73754C24.7569 4.39169 24.0508 4.09843 23.3254 3.86033L22.6317 2.02112C22.4162 1.4294 22.0241 0.918183 21.5084 0.556679C20.9928 0.195176 20.3785 0.000846581 19.7488 8.60684e-09H17.2513C16.6244 -4.69474e-05 16.0125 0.19204 15.4982 0.550382C14.9838 0.908724 14.5917 1.4161 14.3745 2.00417L13.673 3.85417C12.9477 4.09226 12.2416 4.38552 11.561 4.73137L9.7418 3.90658C9.1713 3.65073 8.53675 3.57345 7.92151 3.68489C7.30628 3.79632 6.73915 4.09126 6.29463 4.53096L4.52017 6.32083C4.08668 6.7655 3.79718 7.33042 3.68938 7.94199C3.58159 8.55356 3.6605 9.18342 3.91584 9.7495L4.73755 11.5625C4.38874 12.242 4.09339 12.9477 3.85417 13.673L2.01651 14.3652C1.4249 14.5813 0.914083 14.9741 0.553349 15.4904C0.192616 16.0067 -0.000568909 16.6214 5.13548e-06 17.2512V19.7488C-0.00114377 20.3759 0.190509 20.9882 0.548998 21.5028C0.907487 22.0174 1.41549 22.4093 2.00417 22.6255L3.86342 23.327C4.10057 24.0527 4.39386 24.7588 4.74063 25.439L3.9143 27.2597C3.6592 27.8302 3.58247 28.4645 3.69416 29.0794C3.80586 29.6943 4.10076 30.261 4.54021 30.7054L6.32084 32.4814C6.7663 32.9157 7.3324 33.2056 7.94519 33.3131C8.55797 33.4206 9.18894 33.3408 9.75567 33.0842L11.5625 32.2625C12.2431 32.6083 12.9492 32.9016 13.6746 33.1397L14.3683 34.9789C14.5838 35.5706 14.9759 36.0818 15.4916 36.4433C16.0072 36.8048 16.6215 36.9992 17.2513 37H19.7488C20.3756 37 20.9875 36.808 21.5018 36.4496C22.0162 36.0913 22.4083 35.5839 22.6255 34.9958L23.327 33.135C24.0523 32.8969 24.7584 32.6037 25.439 32.2578L27.2598 33.0842C27.8301 33.3399 28.4646 33.417 29.0796 33.3053C29.6946 33.1935 30.2614 32.8983 30.7054 32.4583L32.4798 30.6822C32.9147 30.2368 33.2051 29.6705 33.3129 29.0574C33.4207 28.4443 33.341 27.8129 33.0842 27.2459L32.2625 25.4375C32.6092 24.7573 32.9025 24.0511 33.1397 23.3254L34.9758 22.6332C35.5686 22.4185 36.0809 22.0265 36.4431 21.5104C36.8052 20.9943 36.9997 20.3792 37 19.7488V17.2512C37.0012 16.6241 36.8095 16.0118 36.451 15.4972C36.0925 14.9826 35.5845 14.5907 34.9958 14.3745ZM33.9167 19.741L31.3421 20.7123C29.9669 21.366 30.1473 23.4873 29.2146 24.5958C28.5193 25.5901 29.8436 27.2937 30.2938 28.5255L28.5208 30.2768L26.0079 29.136C24.5063 28.6411 23.2668 30.2367 21.7468 30.394C20.5689 30.616 20.3084 32.7065 19.7426 33.9167H17.2667L16.2954 31.3421C15.6387 29.9685 13.5204 30.1442 12.4089 29.2146C11.416 28.5224 9.72176 29.839 8.48225 30.2937L6.72167 28.5208L7.8625 26.0141C8.36663 24.5372 6.76021 23.2684 6.60605 21.7529C6.38405 20.5735 4.29355 20.313 3.0818 19.7488L3.08334 17.2667L5.65792 16.2954C7.03309 15.6417 6.85271 13.5204 7.78542 12.412C8.47917 11.4083 7.16105 9.7125 6.71705 8.47917L8.47917 6.72321L10.9921 7.86404C12.4937 8.35892 13.7332 6.76329 15.2533 6.60604C16.4311 6.38404 16.6916 4.29354 17.2574 3.08333H19.7472C20.313 4.28892 20.5843 6.38096 21.7514 6.60142C23.2715 6.75558 24.5125 8.35583 26.0125 7.85942L28.5255 6.71242L30.2783 8.47917L29.1375 10.9859C28.6334 12.4628 30.2398 13.7316 30.394 15.2471C30.6144 16.4234 32.7065 16.6916 33.9182 17.2512L33.9167 19.741Z" fill="#3E4954"/>
<path d="M18.5 9.25C16.6705 9.25 14.8821 9.7925 13.361 10.8089C11.8398 11.8253 10.6542 13.27 9.95412 14.9602C9.25401 16.6504 9.07083 18.5103 9.42774 20.3046C9.78465 22.0989 10.6656 23.7471 11.9593 25.0407C13.2529 26.3344 14.9011 27.2154 16.6954 27.5723C18.4897 27.9292 20.3496 27.746 22.0398 27.0459C23.73 26.3458 25.1747 25.1602 26.1911 23.639C27.2075 22.1179 27.75 20.3295 27.75 18.5C27.7476 16.0475 26.7722 13.6961 25.038 11.962C23.3039 10.2278 20.9525 9.25245 18.5 9.25ZM18.5 24.6667C17.2804 24.6667 16.0881 24.305 15.074 23.6274C14.0599 22.9498 13.2695 21.9867 12.8027 20.8599C12.336 19.7331 12.2139 18.4932 12.4518 17.2969C12.6898 16.1007 13.2771 15.0019 14.1395 14.1395C15.0019 13.2771 16.1007 12.6898 17.2969 12.4518C18.4932 12.2139 19.7331 12.336 20.8599 12.8027C21.9867 13.2695 22.9498 14.0599 23.6274 15.074C24.305 16.0881 24.6667 17.2803 24.6667 18.5C24.6667 20.1355 24.017 21.704 22.8605 22.8605C21.704 24.017 20.1355 24.6667 18.5 24.6667Z" fill="#3E4954"/>
</g>
<defs>
<clipPath id="clip0">
<rect width="37" height="37" fill="white"/>
</clipPath>
</defs>
</svg>
