<svg width="57" height="57" viewBox="0 0 57 57" fill="none" xmlns="http://www.w3.org/2000/svg">
<path d="M12.6324 34.4458L10.6483 41.8527L3.39651 42.0061C1.22929 37.9864 0 33.3873 0 28.5C0 23.774 1.14935 19.3173 3.18666 15.3931H3.18821L9.64435 16.5768L12.4725 22.9942C11.8806 24.7199 11.558 26.5724 11.558 28.5C11.5582 30.5921 11.9372 32.5965 12.6324 34.4458Z" fill="#FBBB00"/>
<path d="M56.502 23.1758C56.8293 24.8999 57 26.6803 57 28.5C57 30.5404 56.7854 32.5307 56.3768 34.4506C54.9894 40.9837 51.3642 46.6883 46.3423 50.7253L46.3407 50.7238L38.2089 50.3088L37.058 43.1243C40.3903 41.17 42.9944 38.1117 44.3662 34.4506H29.1265V23.1758H44.5886H56.502Z" fill="#518EF8"/>
<path d="M46.3407 50.7238L46.3423 50.7253C41.4582 54.6511 35.2539 57 28.5 57C17.6465 57 8.21026 50.9336 3.39655 42.0062L12.6324 34.4459C15.0392 40.8693 21.2357 45.4419 28.5 45.4419C31.6225 45.4419 34.5477 44.5978 37.0578 43.1243L46.3407 50.7238Z" fill="#28B446"/>
<path d="M46.6915 6.56123L37.4587 14.12C34.8608 12.4961 31.79 11.5581 28.5 11.5581C21.0712 11.5581 14.7589 16.3404 12.4726 22.9942L3.1882 15.3931H3.18665C7.92989 6.24807 17.4852 0 28.5 0C35.4151 0 41.7556 2.46325 46.6915 6.56123Z" fill="#F14336"/>
</svg>
