<svg width="37" height="37" viewBox="0 0 37 37" fill="none" xmlns="http://www.w3.org/2000/svg">
<path fill-rule="evenodd" clip-rule="evenodd" d="M37 7.4C37 3.31335 33.6866 0 29.6 0C23.4395 0 13.5587 0 7.4 0C3.3115 0 0 3.31335 0 7.4V35.15C0 35.8993 0.449551 36.5727 1.14145 36.8594C1.83335 37.1461 2.62885 36.9871 3.15795 36.458C3.15795 36.458 6.7525 32.8634 8.9318 30.6841C9.62555 29.9903 10.5672 29.6 11.5477 29.6H29.6C33.6866 29.6 37 26.2885 37 22.2V7.4ZM33.3 7.4C33.3 5.3576 31.6424 3.7 29.6 3.7C23.4395 3.7 13.5587 3.7 7.4 3.7C5.35575 3.7 3.7 5.3576 3.7 7.4V30.6841L6.3159 28.0682C7.7034 26.6807 9.58485 25.9 11.5477 25.9H29.6C31.6424 25.9 33.3 24.2443 33.3 22.2V7.4ZM20.35 20.35V14.8C20.35 13.7788 19.5194 12.95 18.5 12.95C17.4788 12.95 16.65 13.7788 16.65 14.8V20.35C16.65 21.3712 17.4788 22.2 18.5 22.2C19.5194 22.2 20.35 21.3712 20.35 20.35ZM18.5 7.4C19.5194 7.4 20.35 8.2288 20.35 9.25C20.35 10.2712 19.5194 11.1 18.5 11.1C17.4788 11.1 16.65 10.2712 16.65 9.25C16.65 8.2288 17.4788 7.4 18.5 7.4Z" fill="#3E4954" fill-opacity="0.8"/>
</svg>
