<svg width="37" height="37" viewBox="0 0 37 37" fill="none" xmlns="http://www.w3.org/2000/svg">
<path d="M32.375 4.625H30.8333C30.8333 3.39837 30.3461 2.22199 29.4787 1.35463C28.6113 0.487275 27.435 0 26.2083 0C24.9817 0 23.8053 0.487275 22.938 1.35463C22.0706 2.22199 21.5833 3.39837 21.5833 4.625H15.4167C15.4167 3.39837 14.9294 2.22199 14.062 1.35463C13.1947 0.487275 12.0183 6.89179e-08 10.7917 6.89179e-08C9.56504 6.89179e-08 8.38865 0.487275 7.5213 1.35463C6.65394 2.22199 6.16667 3.39837 6.16667 4.625H4.625C3.39837 4.625 2.22199 5.11228 1.35463 5.97963C0.487275 6.84699 0 8.02337 0 9.25L0 32.375C0 33.6016 0.487275 34.778 1.35463 35.6454C2.22199 36.5127 3.39837 37 4.625 37H32.375C33.6016 37 34.778 36.5127 35.6454 35.6454C36.5127 34.778 37 33.6016 37 32.375V9.25C37 8.02337 36.5127 6.84699 35.6454 5.97963C34.778 5.11228 33.6016 4.625 32.375 4.625ZM4.625 7.70833H6.16667C6.16667 8.93496 6.65394 10.1113 7.5213 10.9787C8.38865 11.8461 9.56504 12.3333 10.7917 12.3333C11.2005 12.3333 11.5927 12.1709 11.8818 11.8818C12.1709 11.5927 12.3333 11.2005 12.3333 10.7917C12.3333 10.3828 12.1709 9.99066 11.8818 9.70154C11.5927 9.41243 11.2005 9.25 10.7917 9.25C10.3828 9.25 9.99066 9.08757 9.70154 8.79846C9.41243 8.50934 9.25 8.11721 9.25 7.70833V4.625C9.25 4.21612 9.41243 3.824 9.70154 3.53488C9.99066 3.24576 10.3828 3.08333 10.7917 3.08333C11.2005 3.08333 11.5927 3.24576 11.8818 3.53488C12.1709 3.824 12.3333 4.21612 12.3333 4.625V6.16667C12.3333 6.57554 12.4958 6.96767 12.7849 7.25679C13.074 7.54591 13.4661 7.70833 13.875 7.70833H21.5833C21.5833 8.93496 22.0706 10.1113 22.938 10.9787C23.8053 11.8461 24.9817 12.3333 26.2083 12.3333C26.6172 12.3333 27.0093 12.1709 27.2985 11.8818C27.5876 11.5927 27.75 11.2005 27.75 10.7917C27.75 10.3828 27.5876 9.99066 27.2985 9.70154C27.0093 9.41243 26.6172 9.25 26.2083 9.25C25.7995 9.25 25.4073 9.08757 25.1182 8.79846C24.8291 8.50934 24.6667 8.11721 24.6667 7.70833V4.625C24.6667 4.21612 24.8291 3.824 25.1182 3.53488C25.4073 3.24576 25.7995 3.08333 26.2083 3.08333C26.6172 3.08333 27.0093 3.24576 27.2985 3.53488C27.5876 3.824 27.75 4.21612 27.75 4.625V6.16667C27.75 6.57554 27.9124 6.96767 28.2015 7.25679C28.4907 7.54591 28.8828 7.70833 29.2917 7.70833H32.375C32.7839 7.70833 33.176 7.87076 33.4651 8.15988C33.7542 8.449 33.9167 8.84112 33.9167 9.25V15.4167H3.08333V9.25C3.08333 8.84112 3.24576 8.449 3.53488 8.15988C3.824 7.87076 4.21612 7.70833 4.625 7.70833ZM32.375 33.9167H4.625C4.21612 33.9167 3.824 33.7542 3.53488 33.4651C3.24576 33.176 3.08333 32.7839 3.08333 32.375V18.5H33.9167V32.375C33.9167 32.7839 33.7542 33.176 33.4651 33.4651C33.176 33.7542 32.7839 33.9167 32.375 33.9167Z" fill="#3E4954"/>
</svg>
